<svg width="78" height="38" viewBox="0 0 78 38" fill="none" xmlns="http://www.w3.org/2000/svg">
<path d="M18.4401 18.8112L31.0261 11.5487C31.7298 11.1417 32.3465 10.6001 32.8408 9.95481C33.3352 9.3095 33.6976 8.57314 33.9074 7.78776C34.1172 7.00239 34.1702 6.18338 34.0635 5.37751C33.9568 4.57163 33.6924 3.79467 33.2854 3.09098C32.8784 2.38729 32.3367 1.77066 31.6914 1.27629C31.0461 0.78192 30.3098 0.419494 29.5244 0.209705C27.9383 -0.213984 26.2488 0.00977041 24.8276 0.831746L3.09375 13.3767L18.4401 18.8112Z" fill="#EA4335"/>
<path d="M27.9159 37.4724C29.2784 37.4738 30.6033 37.0257 31.6852 36.1975C32.7671 35.3693 33.5455 34.2074 33.8998 32.8917C34.2541 31.5761 34.1645 30.1804 33.6448 28.9209C33.1251 27.6614 32.2044 26.6086 31.0254 25.9256L9.28334 13.3766C7.86218 12.5557 6.17313 12.333 4.58776 12.7574C3.0024 13.1819 1.65058 14.2187 0.82969 15.6399C0.00880433 17.0611 -0.213906 18.7501 0.210554 20.3355C0.635013 21.9209 1.67187 23.2727 3.09303 24.0936L24.8228 36.6385C25.7623 37.1843 26.8294 37.472 27.9159 37.4724Z" fill="#4285F4"/>
<path d="M49.5297 37.4728C50.6138 37.4755 51.6793 37.1921 52.6187 36.6513L74.3485 24.1063L59.1993 18.5527L46.4284 25.9261C45.248 26.6078 44.3257 27.66 43.8044 28.9195C43.2832 30.179 43.1923 31.5753 43.5457 32.8918C43.8992 34.2083 44.6773 35.3713 45.7593 36.2003C46.8413 37.0294 48.1667 37.4781 49.5297 37.4769V37.4728Z" fill="#FBBC04"/>
<path d="M71.2477 24.9233C72.6112 24.9263 73.9375 24.4788 75.0204 23.6503C76.1033 22.8217 76.8822 21.6586 77.2359 20.3418C77.5896 19.025 77.4983 17.6282 76.9762 16.3686C76.4541 15.109 75.5306 14.0571 74.349 13.3766L52.6193 0.831643C51.1981 0.0107569 49.5091 -0.211952 47.9237 0.212507C46.3383 0.636966 44.9865 1.67382 44.1656 3.09499C43.3447 4.51615 43.122 6.2052 43.5465 7.79057C43.971 9.37593 45.0078 10.7278 46.429 11.5486L68.1587 24.0936C69.0974 24.6372 70.163 24.9235 71.2477 24.9233Z" fill="#0F9D58"/>
</svg>
